<?xml version="1.0" encoding="UTF-8" standalone="no"?>
<!DOCTYPE svg PUBLIC "-//W3C//DTD SVG 1.1//EN" "http://www.w3.org/Graphics/SVG/1.1/DTD/svg11.dtd">
<svg width="100%" height="100%" viewBox="0 0 12 21" version="1.1" xmlns="http://www.w3.org/2000/svg" xmlns:xlink="http://www.w3.org/1999/xlink" xml:space="preserve" xmlns:serif="http://www.serif.com/" style="fill-rule:evenodd;clip-rule:evenodd;stroke-linejoin:round;stroke-miterlimit:1.41421;">
    <g transform="matrix(1,0,0,1,-636.605,-237.878)">
        <g transform="matrix(1,0,0,1,92.1596,-312.463)">
            <g transform="matrix(2.10714,0,0,2.10714,-523.721,-258.738)">
                <path d="M509.723,389.055L509.723,390.918L511.85,390.918L511.85,391.192L509.723,391.192L509.723,393.226L509.449,393.226L509.449,391.192L507.318,391.192L507.318,390.918L509.449,390.918L509.449,389.055C509.131,389.055 508.783,388.954 508.404,388.752C508.026,388.549 507.725,388.254 507.501,387.867C507.277,387.479 507.165,387.069 507.165,386.636C507.165,386.216 507.272,385.813 507.487,385.426C507.701,385.04 508,384.741 508.384,384.527C508.767,384.314 509.17,384.208 509.593,384.208C510.013,384.208 510.416,384.315 510.8,384.53C511.185,384.744 511.484,385.044 511.697,385.429C511.91,385.813 512.017,386.216 512.017,386.636C512.017,387.282 511.795,387.839 511.352,388.307C510.909,388.775 510.366,389.024 509.723,389.055ZM509.589,384.467C509.224,384.467 508.868,384.561 508.52,384.748C508.173,384.934 507.902,385.202 507.707,385.552C507.512,385.901 507.415,386.264 507.415,386.641C507.415,387.243 507.627,387.757 508.052,388.182C508.477,388.607 508.989,388.819 509.589,388.819C510.191,388.819 510.705,388.607 511.13,388.182C511.554,387.757 511.767,387.243 511.767,386.641C511.767,386.264 511.669,385.901 511.475,385.552C511.28,385.202 511.009,384.934 510.661,384.748C510.314,384.561 509.956,384.467 509.589,384.467Z" style="fill-rule:nonzero;stroke:rgb(255,0,206);stroke-width:0.47px;"/>
            </g>
        </g>
    </g>
</svg>
