<?xml version="1.0" encoding="UTF-8" standalone="no"?>
<!DOCTYPE svg PUBLIC "-//W3C//DTD SVG 1.1//EN" "http://www.w3.org/Graphics/SVG/1.1/DTD/svg11.dtd">
<svg width="100%" height="100%" viewBox="0 0 14 20" version="1.1" xmlns="http://www.w3.org/2000/svg" xmlns:xlink="http://www.w3.org/1999/xlink" xml:space="preserve" xmlns:serif="http://www.serif.com/" style="fill-rule:evenodd;clip-rule:evenodd;stroke-linejoin:round;stroke-miterlimit:1.41421;">
    <g transform="matrix(1,0,0,1,-468.524,-238.19)">
        <g transform="matrix(1.19579,0,0,1.19579,-137.17,-213.273)">
            <path d="M515.965,377.962L516.259,378.093L517.59,383.532L517.124,383.654L515.965,378.909L513.041,385.181C513.847,385.59 514.456,386.139 514.87,386.831C515.284,387.522 515.491,388.263 515.491,389.052C515.491,389.793 515.303,390.502 514.927,391.18C514.552,391.857 514.025,392.386 513.347,392.764C512.669,393.142 511.957,393.332 511.212,393.332C510.471,393.332 509.762,393.142 509.084,392.764C508.406,392.386 507.88,391.857 507.504,391.18C507.128,390.502 506.94,389.793 506.94,389.052C506.94,387.871 507.358,386.864 508.194,386.031C509.03,385.198 510.044,384.781 511.236,384.781C511.661,384.781 512.113,384.855 512.592,385.002L515.532,378.705L511.146,380.869L510.95,380.436L515.965,377.962ZM511.212,385.222C510.569,385.222 509.942,385.387 509.329,385.716C508.717,386.045 508.239,386.518 507.896,387.133C507.553,387.748 507.381,388.388 507.381,389.052C507.381,390.114 507.756,391.019 508.504,391.768C509.253,392.516 510.155,392.891 511.212,392.891C512.273,392.891 513.178,392.516 513.927,391.768C514.676,391.019 515.05,390.114 515.05,389.052C515.05,388.388 514.878,387.748 514.535,387.133C514.192,386.518 513.715,386.045 513.102,385.716C512.49,385.387 511.859,385.222 511.212,385.222Z" style="fill:rgb(0,161,255);fill-rule:nonzero;stroke:rgb(0,161,255);stroke-width:0.84px;"/>
        </g>
    </g>
</svg>
