<?xml version="1.0" encoding="UTF-8" standalone="no"?>
<!DOCTYPE svg PUBLIC "-//W3C//DTD SVG 1.1//EN" "http://www.w3.org/Graphics/SVG/1.1/DTD/svg11.dtd">
<svg width="100%" height="100%" viewBox="0 0 22 22" version="1.1" xmlns="http://www.w3.org/2000/svg" xmlns:xlink="http://www.w3.org/1999/xlink" xml:space="preserve" xmlns:serif="http://www.serif.com/" style="fill-rule:evenodd;clip-rule:evenodd;stroke-linecap:round;stroke-linejoin:round;stroke-miterlimit:1.5;">
    <g transform="matrix(1,0,0,1,-736.871,-70.1294)">
        <g transform="matrix(1,0,0,1,12.5269,0)">
            <g transform="matrix(0.245437,0,0,0.245437,557.518,24.6147)">
                <path d="M723.417,187.48C746.414,187.48 765.084,206.151 765.084,229.148C765.084,252.145 746.414,270.815 723.417,270.815C700.42,270.815 681.749,252.145 681.749,229.148C681.749,206.151 700.42,187.48 723.417,187.48ZM688.441,232.534C690.146,250.341 705.166,264.285 723.417,264.285C741.668,264.285 756.687,250.341 758.393,232.534L736.354,232.534C734.853,238.276 729.626,242.518 723.417,242.518C717.207,242.518 711.98,238.276 710.48,232.534L688.441,232.534ZM723.417,222.385C727.149,222.385 730.179,225.416 730.179,229.148C730.179,232.88 727.149,235.91 723.417,235.91C719.684,235.91 716.654,232.88 716.654,229.148C716.654,225.416 719.684,222.385 723.417,222.385ZM758.386,225.692C756.648,207.919 741.644,194.01 723.417,194.01C705.19,194.01 690.185,207.919 688.447,225.692L710.498,225.692C712.023,219.986 717.232,215.778 723.417,215.778C729.601,215.778 734.811,219.986 736.335,225.692L758.386,225.692Z" style="fill:rgb(246,78,84);stroke:rgb(246,78,84);stroke-width:4.07px;"/>
            </g>
        </g>
    </g>
</svg>
