<?xml version="1.0" encoding="UTF-8" standalone="no"?>
<!DOCTYPE svg PUBLIC "-//W3C//DTD SVG 1.1//EN" "http://www.w3.org/Graphics/SVG/1.1/DTD/svg11.dtd">
<svg width="100%" height="100%" viewBox="0 0 11 11" version="1.1" xmlns="http://www.w3.org/2000/svg" xmlns:xlink="http://www.w3.org/1999/xlink" xml:space="preserve" xmlns:serif="http://www.serif.com/" style="fill-rule:evenodd;clip-rule:evenodd;stroke-linejoin:round;stroke-miterlimit:1.41421;">
    <g transform="matrix(1,0,0,1,-505.753,-486.821)">
        <g transform="matrix(1,0,0,1,0,-5.25388)">
            <g transform="matrix(1,0,0,1,0,20)">
                <path d="M515.897,474.23L511.523,478.604L513.051,480.131L510.93,482.252L509.402,480.725L507.875,482.252L505.753,480.131L507.281,478.604L505.753,477.076L507.875,474.955L509.402,476.482L513.81,472.075L515.897,472.075L515.897,474.23ZM514.224,473.075L509.402,477.896L509.402,477.896L507.875,476.369L507.167,477.076L508.695,478.604L508.695,478.604L507.167,480.131L507.875,480.838L509.402,479.311L510.93,480.838L511.637,480.131L510.109,478.604L514.897,473.816L514.897,473.075L514.224,473.075Z" style="fill:rgb(236,63,64);fill-opacity:0.854902;"/>
            </g>
        </g>
    </g>
</svg>
