<?xml version="1.0" encoding="UTF-8" standalone="no"?>
<!DOCTYPE svg PUBLIC "-//W3C//DTD SVG 1.1//EN" "http://www.w3.org/Graphics/SVG/1.1/DTD/svg11.dtd">
<svg width="100%" height="100%" viewBox="0 0 10 10" version="1.1" xmlns="http://www.w3.org/2000/svg" xmlns:xlink="http://www.w3.org/1999/xlink" xml:space="preserve" xmlns:serif="http://www.serif.com/" style="fill-rule:evenodd;clip-rule:evenodd;stroke-linejoin:round;stroke-miterlimit:1.41421;">
    <g transform="matrix(1,0,0,1,-506.267,-517.697)">
        <g transform="matrix(1,0,0,1,-0.0206005,96.8051)">
            <path d="M515.404,421.004L515.403,421.224L515.402,421.442L515.399,421.658L515.395,421.871L515.39,422.081L515.384,422.29L515.377,422.496L515.369,422.699L515.359,422.9L515.347,423.099L515.335,423.295L515.32,423.489L515.304,423.681L515.287,423.87L515.267,424.056L515.246,424.24L515.223,424.422L515.198,424.601L515.171,424.778L515.142,424.952L515.111,425.124L515.078,425.293L515.042,425.46L515.004,425.624L514.964,425.786L514.943,425.866L514.921,425.946L514.899,426.025L514.876,426.103L514.852,426.18L514.828,426.257L514.803,426.334L514.777,426.409L514.751,426.484L514.724,426.559L514.697,426.633L514.668,426.706L514.639,426.778L514.609,426.85L514.579,426.922L514.548,426.992L514.516,427.062L514.483,427.132L514.45,427.201L514.415,427.269L514.38,427.336L514.345,427.403L514.308,427.47L514.271,427.535L514.232,427.6L514.193,427.665L514.154,427.728L514.113,427.792L514.072,427.854L514.029,427.916L513.986,427.977L513.942,428.038L513.897,428.098L513.851,428.157L513.805,428.216L513.757,428.274L513.709,428.331L513.659,428.388L513.609,428.444L513.558,428.5L513.506,428.555L513.452,428.609L513.398,428.662L513.343,428.715L513.287,428.768L513.231,428.819L513.173,428.87L513.114,428.921L513.054,428.97L512.993,429.02L512.931,429.068L512.868,429.116L512.804,429.163L512.739,429.21L512.673,429.255L512.606,429.301L512.538,429.345L512.468,429.389L512.398,429.433L512.326,429.475L512.254,429.517L512.18,429.559L512.106,429.599L512.03,429.639L511.953,429.679L511.875,429.718L511.795,429.756L511.715,429.793L511.633,429.83L511.551,429.866L511.467,429.902L511.382,429.937L511.295,429.971L511.208,430.004L511.119,430.037L511.029,430.069L510.938,430.101L510.846,430.132L510.799,430.116L510.707,430.085L510.616,430.053L510.526,430.02L510.438,429.987L510.351,429.953L510.265,429.918L510.18,429.883L510.096,429.847L510.014,429.81L509.933,429.773L509.853,429.735L509.774,429.696L509.696,429.657L509.619,429.617L509.544,429.576L509.469,429.535L509.396,429.493L509.324,429.451L509.253,429.408L509.183,429.364L509.114,429.319L509.046,429.274L508.979,429.228L508.914,429.182L508.849,429.135L508.785,429.087L508.723,429.039L508.661,428.99L508.601,428.94L508.541,428.889L508.483,428.838L508.425,428.787L508.369,428.735L508.313,428.682L508.258,428.628L508.205,428.574L508.152,428.519L508.1,428.463L508.049,428.407L508,428.351L507.951,428.293L507.903,428.235L507.855,428.176L507.809,428.117L507.764,428.057L507.719,427.996L507.676,427.935L507.633,427.873L507.591,427.811L507.55,427.747L507.51,427.684L507.47,427.619L507.432,427.554L507.394,427.488L507.357,427.422L507.321,427.355L507.286,427.287L507.251,427.219L507.217,427.15L507.184,427.081L507.152,427.01L507.12,426.94L507.09,426.868L507.06,426.796L507.03,426.723L507.002,426.65L506.974,426.576L506.947,426.501L506.92,426.426L506.894,426.35L506.869,426.274L506.845,426.197L506.821,426.119L506.798,426.041L506.775,425.962L506.753,425.882L506.732,425.802L506.711,425.721L506.672,425.557L506.635,425.391L506.6,425.223L506.567,425.052L506.537,424.878L506.509,424.702L506.482,424.524L506.458,424.343L506.436,424.159L506.415,423.973L506.397,423.785L506.38,423.594L506.365,423.401L506.351,423.205L506.339,423.007L506.328,422.806L506.319,422.603L506.311,422.398L506.304,422.19L506.299,421.98L506.294,421.767L506.291,421.552L506.289,421.334L506.288,421.114L506.287,420.892L515.404,420.892L515.404,421.004ZM507.297,421.892L507.298,421.957L507.304,422.161L507.31,422.363L507.318,422.561L507.327,422.757L507.337,422.95L507.349,423.14L507.362,423.327L507.376,423.511L507.392,423.692L507.41,423.869L507.429,424.044L507.45,424.216L507.473,424.385L507.497,424.55L507.523,424.713L507.551,424.872L507.581,425.028L507.612,425.181L507.646,425.331L507.682,425.48L507.7,425.55L507.718,425.621L507.738,425.692L507.758,425.762L507.778,425.831L507.799,425.899L507.82,425.966L507.842,426.033L507.865,426.099L507.888,426.164L507.911,426.228L507.935,426.292L507.96,426.354L507.985,426.416L508.01,426.478L508.036,426.538L508.063,426.598L508.09,426.657L508.118,426.715L508.146,426.773L508.175,426.83L508.204,426.886L508.234,426.941L508.264,426.996L508.296,427.05L508.327,427.104L508.359,427.156L508.392,427.208L508.426,427.26L508.46,427.311L508.494,427.361L508.53,427.41L508.566,427.46L508.603,427.508L508.639,427.556L508.678,427.603L508.716,427.65L508.756,427.696L508.796,427.742L508.837,427.787L508.878,427.831L508.921,427.876L508.964,427.919L509.008,427.963L509.053,428.005L509.098,428.047L509.145,428.089L509.193,428.131L509.241,428.172L509.29,428.212L509.34,428.252L509.391,428.292L509.444,428.331L509.497,428.369L509.551,428.408L509.606,428.446L509.663,428.483L509.72,428.52L509.778,428.556L509.838,428.593L509.898,428.629L509.96,428.664L510.023,428.699L510.087,428.733L510.152,428.767L510.219,428.801L510.287,428.834L510.356,428.867L510.426,428.899L510.497,428.931L510.57,428.962L510.644,428.993L510.72,429.023L510.796,429.053L510.846,429.072L510.855,429.069L510.932,429.039L511.008,429.009L511.083,428.978L511.156,428.948L511.227,428.916L511.298,428.884L511.367,428.852L511.436,428.819L511.503,428.786L511.568,428.752L511.633,428.718L511.696,428.684L511.759,428.649L511.82,428.613L511.879,428.578L511.938,428.541L511.996,428.505L512.052,428.468L512.108,428.43L512.163,428.392L512.216,428.354L512.269,428.315L512.32,428.276L512.371,428.237L512.42,428.197L512.469,428.156L512.517,428.115L512.564,428.074L512.61,428.032L512.655,427.99L512.7,427.947L512.743,427.904L512.786,427.86L512.828,427.816L512.869,427.772L512.909,427.726L512.949,427.681L512.988,427.634L513.026,427.588L513.064,427.54L513.101,427.492L513.137,427.444L513.173,427.395L513.208,427.345L513.242,427.295L513.276,427.245L513.309,427.193L513.342,427.141L513.374,427.088L513.405,427.035L513.436,426.981L513.466,426.926L513.496,426.87L513.525,426.814L513.553,426.758L513.581,426.7L513.609,426.642L513.635,426.583L513.662,426.523L513.688,426.463L513.713,426.401L513.738,426.34L513.762,426.277L513.786,426.213L513.809,426.149L513.832,426.084L513.854,426.018L513.876,425.952L513.897,425.884L513.918,425.816L513.938,425.748L513.958,425.678L513.977,425.608L513.995,425.538L514.032,425.391L514.066,425.243L514.098,425.092L514.128,424.938L514.157,424.781L514.184,424.62L514.209,424.456L514.232,424.29L514.253,424.12L514.273,423.947L514.292,423.771L514.308,423.593L514.323,423.411L514.337,423.226L514.349,423.038L514.36,422.847L514.37,422.654L514.378,422.457L514.385,422.258L514.391,422.056L514.394,421.892L507.297,421.892Z" style="fill:rgb(78,166,246);fill-opacity:0.854902;"/>
        </g>
    </g>
</svg>
