<?xml version="1.0" encoding="UTF-8" standalone="no"?>
<!DOCTYPE svg PUBLIC "-//W3C//DTD SVG 1.1//EN" "http://www.w3.org/Graphics/SVG/1.1/DTD/svg11.dtd">
<svg width="100%" height="100%" viewBox="0 0 21 21" version="1.1" xmlns="http://www.w3.org/2000/svg" xmlns:xlink="http://www.w3.org/1999/xlink" xml:space="preserve" xmlns:serif="http://www.serif.com/" style="fill-rule:evenodd;clip-rule:evenodd;stroke-linecap:round;stroke-linejoin:round;stroke-miterlimit:1.5;">
    <g transform="matrix(1,0,0,1,-624.703,-70.6255)">
        <g transform="matrix(1,0,0,1,4,0)">
            <g>
                <g transform="matrix(1.24866,0,0,1.24866,-89.9751,-26.8755)">
                    <path d="M577.238,78.485C579.148,78.485 580.699,80.036 580.699,81.945C580.699,83.855 579.148,85.406 577.238,85.406C575.329,85.406 573.778,83.855 573.778,81.945C573.778,80.036 575.329,78.485 577.238,78.485ZM577.238,80.17C578.218,80.17 579.014,80.966 579.014,81.945C579.014,82.925 578.218,83.721 577.238,83.721C576.259,83.721 575.463,82.925 575.463,81.945C575.463,80.966 576.259,80.17 577.238,80.17Z" style="fill:rgb(78,166,246);stroke:rgb(78,166,246);stroke-width:0.8px;"/>
                </g>
                <g transform="matrix(0.956236,0,0,1.03866,104.514,-10.2909)">
                    <path d="M560.925,98.086L539.813,98.086L542.724,84.993L558.014,84.993L560.925,98.086Z" style="fill:rgb(78,166,246);"/>
                </g>
            </g>
            <g transform="matrix(0.890003,0,0,0.890003,101.835,11.1127)">
                <text x="587.893px" y="85.883px" style="font-family:'Roboto-Black', 'Roboto Black';font-weight:900;font-size:10px;fill:white;">50.</text>
            </g>
        </g>
    </g>
</svg>
